<?xml version="1.0" encoding="UTF-8" standalone="no"?>
<!DOCTYPE svg PUBLIC "-//W3C//DTD SVG 1.1//EN"
"http://www.w3.org/Graphics/SVG/1.1/DTD/svg11.dtd">
<svg viewBox="0 0 909 1286" version="1.1" xmlns="http://www.w3.org/2000/svg" xmlns:xlink="http://www.w3.org/1999/xlink">
<defs>
<style type="text/css"><![CDATA[
.g0_2{
fill: #E0E0E0;
}
.g1_2{
fill: #A6A6A6;
}
.g2_2{
}
.g3_2{
fill: #333F60;
}
.g4_2{
fill: #FFFFFF;
}
.g5_2{
fill: #0000FF;
}
]]></style>
</defs>
<path fill-rule="evenodd" d="M52.8,84.9H856.9V55.7H52.8V84.9Z" class="g0_2"/>
<image preserveAspectRatio="none" x="48" y="51" width="196" height="45" xlink:href="img/1.png"/>
<image preserveAspectRatio="none" x="220" y="51" width="37" height="45" xlink:href="img/2.png"/>
<image preserveAspectRatio="none" x="234" y="56" width="26" height="37" xlink:href="img/3.png"/>
<image preserveAspectRatio="none" x="236" y="51" width="265" height="45" xlink:href="img/4.png"/>
<image preserveAspectRatio="none" x="481" y="57" width="315" height="35" xlink:href="img/5.png"/>
<path fill-rule="evenodd" d="M52.8,55.7H856.9V55H52.8v.7Z" class="g1_2"/>
<path fill-rule="evenodd" d="M52.8,85.6H856.9v-.7H52.8v.7Z" class="g2_2"/>
<path fill-rule="evenodd" d="M55,540.4h74.1v-1.1H55v1.1Z" class="g2_2"/>
<path fill-rule="evenodd" d="M52.8,1001.3H856.9V972.6H52.8v28.7Z" class="g0_2"/>
<image preserveAspectRatio="none" x="59" y="969" width="288" height="43" xlink:href="img/6.png"/>
<path fill-rule="evenodd" d="M52.8,972.6H856.9v-1.5H52.8v1.5Z" class="g3_2"/>
<path fill-rule="evenodd" d="M52.8,1001.7H856.9v-.4H52.8v.4Z" class="g4_2"/>
<path fill-rule="evenodd" d="M82.5,1028.8h44.2v-1.1H82.5v1.1Z" class="g2_2"/>
<path fill-rule="evenodd" d="M82.5,1117h512v-1.1H82.5v1.1Z" class="g5_2"/>
<path fill-rule="evenodd" d="M82.5,1140h51.2v-1.1H82.5v1.1Z" class="g2_2"/>
<path fill-rule="evenodd" d="M82.5,1228H591.9v-1.1H82.5v1.1Z" class="g5_2"/>
<path fill-rule="evenodd" d="M607.5,1228h124v-1.1h-124v1.1Z" class="g5_2"/>
</svg>