<?xml version="1.0" encoding="UTF-8" standalone="no"?>
<!DOCTYPE svg PUBLIC "-//W3C//DTD SVG 1.1//EN"
"http://www.w3.org/Graphics/SVG/1.1/DTD/svg11.dtd">
<svg viewBox="0 0 935 1210" version="1.1" xmlns="http://www.w3.org/2000/svg" xmlns:xlink="http://www.w3.org/1999/xlink">
<defs>
<style type="text/css"><![CDATA[
.g0{
fill: #E0E0E0;
}
.g1{
fill: #333F60;
}
.g2{
fill: #FFFFFF;
}
.g3{
fill: #0000FF;
}
.g4{
}
]]></style>
</defs>
<path fill-rule="evenodd" d="M107.8,234H827.3V205H107.8v29Z" class="g0"/>
<image preserveAspectRatio="none" x="114" y="202" width="288" height="42" xlink:href="img/1.png"/>
<path fill-rule="evenodd" d="M107.8,205H827.3v-1.5H107.8V205Z" class="g1"/>
<path fill-rule="evenodd" d="M107.8,234.3H827.3V234H107.8v.3Z" class="g2"/>
<path fill-rule="evenodd" d="M165,355.7H732.9v-1.1H165v1.1Z" class="g3"/>
<path fill-rule="evenodd" d="M165,450.5H734.6v-1.1H165v1.1Z" class="g3"/>
<path fill-rule="evenodd" d="M165,470H311.2v-1.1H165V470Z" class="g3"/>
<path fill-rule="evenodd" d="M165,564.7H755.3v-1.1H165v1.1Z" class="g3"/>
<path fill-rule="evenodd" d="M107.8,630.6H827.3v-29H107.8v29Z" class="g0"/>
<image preserveAspectRatio="none" x="114" y="598" width="286" height="43" xlink:href="img/2.png"/>
<path fill-rule="evenodd" d="M107.8,601.6H827.3v-1.5H107.8v1.5Z" class="g1"/>
<path fill-rule="evenodd" d="M107.8,630.9H827.3v-.3H107.8v.3Z" class="g2"/>
<path fill-rule="evenodd" d="M422.3,658.1H556.9V657H422.3v1.1Z" class="g4"/>
<path fill-rule="evenodd" d="M475.1,686.9H671.3v-1.1H475.1v1.1Z" class="g4"/>
<path fill-rule="evenodd" d="M535.4,715.5H676.8v-1.1H535.4v1.1Z" class="g4"/>
<path fill-rule="evenodd" d="M415.1,744.3H556.3v-1.1H415.1v1.1Z" class="g4"/>
<path fill-rule="evenodd" d="M517.5,773H661.9v-1.1H517.5V773Z" class="g4"/>
<path fill-rule="evenodd" d="M107.8,823.5H827.3v-29H107.8v29Z" class="g0"/>
<image preserveAspectRatio="none" x="114" y="791" width="448" height="43" xlink:href="img/3.png"/>
<path fill-rule="evenodd" d="M107.8,794.5H827.3V793H107.8v1.5Z" class="g1"/>
<path fill-rule="evenodd" d="M107.8,823.8H827.3v-.3H107.8v.3Z" class="g2"/>
<path fill-rule="evenodd" d="M445.2,851H646.9v-1.1H445.2V851Z" class="g4"/>
<path fill-rule="evenodd" d="M348.4,879.6h188v-1.1h-188v1.1Z" class="g4"/>
<path fill-rule="evenodd" d="M334.8,908.3H825.2v-1.1H334.8v1.1Z" class="g4"/>
<path fill-rule="evenodd" d="M165,928H367.6v-1.1H165V928Z" class="g4"/>
<path fill-rule="evenodd" d="M345.8,956.8h395v-1.1h-395v1.1Z" class="g4"/>
</svg>